# xmcd
#
# Track frame offsets: 
#        150
#        9435
#        20973
#        33022
#        43606
#        55466
#        65925
#        77455
#        91265
#        99802
#        106920
#        120010
#        127291
#        148402
#        157033
#        167708
#
# Disc length: 2421 seconds
#
# Revision: 0
# Processed by: cddbd v1.5.2PL0 Copyright (c) Steve Scherf et al.
# Submitted via: ExactAudioCopy v0.99pb4
#
DISCID=d2097310
DTITLE=Ronnie Prophet and Glory-Anne - Hits of Yesterday
DYEAR=1900
DGENRE=
TTITLE0=Lonesome Me
TTITLE1=Singing The Blues
TTITLE2=Golden Rings
TTITLE3=White Lightning
TTITLE4=Please Help Me
TTITLE5=Sea Of Heartbreak
TTITLE6=Stand By Your Man
TTITLE7=For The Good Times
TTITLE8=Keys In The Mailbox
TTITLE9=Last Date
TTITLE10=Phantom Of The Opry
TTITLE11=Steel Guitar Rag
TTITLE12=Hank Snow
TTITLE13=Kansas City Star
TTITLE14=Auctioneer
TTITLE15=Ghost Riders
EXTD=
EXTT0=
EXTT1=
EXTT2=
EXTT3=
EXTT4=
EXTT5=
EXTT6=
EXTT7=
EXTT8=
EXTT9=
EXTT10=
EXTT11=
EXTT12=
EXTT13=
EXTT14=
EXTT15=
PLAYORDER=
